# xmcd
#
# Track frame offsets:
#	150
#	14780
#	31838
#	45878
#	60347
#	80541
#	99100
#	116458
#	133817
#	150726
#	170031
#	185138
#	203079
#	221694
#	236090
#
# Disc length: 3368 seconds
#
# Revision: 1
# Processed by: cddbd v1.5.1PL0 Copyright (c) Steve Scherf et al.
# Submitted via: audiograbber 1.83.01
#
DISCID=c80d260f
DTITLE=Hot Country Hits Collection 198 - CB60198
DYEAR=1900
DGENRE=Karaoke
TTITLE0=CB60198-01 - Brooks and Dunn - You'll Always Be Loved By Me
TTITLE1=CB60198-02 - McCoy, Neal - Forever Works For Me
TTITLE2=CB60198-03 - Elliott, Alecia - You Wanna What?
TTITLE3=CB60198-04 - Perfect Stranger - Coming Up Short Again
TTITLE4=CB60198-05 - Sellers, Jason - Can't Help Calling Your Name
TTITLE5=CB60198-06 - Hill, Faith - Love Is A Sweet Thing
TTITLE6=CB60198-07 - Warren Brothers, The - That's The Beat Of A Heart
TTITLE7=CB60198-08 - Worley, Darryl - When You Need My Love
TTITLE8=CB60198-09 - Kinleys, The - She Ain't The Girl For You
TTITLE9=CB60198-10 - Rushlow, Tim - When You Love Me
TTITLE10=CB60198-11 - River Road - Breathless
TTITLE11=CB60198-12 - Keller, Joanie - Three Little Teardrops
TTITLE12=CB60198-13 - Allan, Gary - Lovin' You Against My Will
TTITLE13=CB60198-14 - Ricochet - Do I Love You Enough
TTITLE14=CB60198-15 - Messina, Jo Dee - No Time For Tears
EXTD=
EXTT0=
EXTT1=
EXTT2=
EXTT3=
EXTT4=
EXTT5=
EXTT6=
EXTT7=
EXTT8=
EXTT9=
EXTT10=
EXTT11=
EXTT12=
EXTT13=
EXTT14=
PLAYORDER=
